PathFileType	4	(X/Y/Z)	C:/Users/opensim2020/Desktop/walking_exp_matlab/subject06_walking15_straight_02.trc																																																																																																																																											
DataRate	CameraRate	NumFrames	NumMarkers	Units	OrigDataRate	OrigDataStartFrame	OrigNumFrames																																																																																																																																							
100	100	4	47	mm	100	1601	218																																																																																																																																							
Frame#	Time	LFHD			RFHD			LBHD			RBHD			C7			T10			CLAV			STRN			RBAK			LSHO			LUPA			LELB			LFRM			LWRA			LWRB			LFIN			RSHO			RUPA			RELB			RFRM			RWRA			RWRB			RFIN			LASI			RASI			LPSI			RPSI			LTHI			LKNE			LTIB			LANK			LHEE			LTOE			RTHI			RKNE			RTIB			RANK			RHEE			RTOE			*39			*40			*41			*42			*43			*44			*45			*46		
		X1	Y1	Z1	X2	Y2	Z2	X3	Y3	Z3	X4	Y4	Z4	X5	Y5	Z5	X6	Y6	Z6	X7	Y7	Z7	X8	Y8	Z8	X9	Y9	Z9	X10	Y10	Z10	X11	Y11	Z11	X12	Y12	Z12	X13	Y13	Z13	X14	Y14	Z14	X15	Y15	Z15	X16	Y16	Z16	X17	Y17	Z17	X18	Y18	Z18	X19	Y19	Z19	X20	Y20	Z20	X21	Y21	Z21	X22	Y22	Z22	X23	Y23	Z23	X24	Y24	Z24	X25	Y25	Z25	X26	Y26	Z26	X27	Y27	Z27	X28	Y28	Z28	X29	Y29	Z29	X30	Y30	Z30	X31	Y31	Z31	X32	Y32	Z32	X33	Y33	Z33	X34	Y34	Z34	X35	Y35	Z35	X36	Y36	Z36	X37	Y37	Z37	X38	Y38	Z38	X39	Y39	Z39	X40	Y40	Z40	X41	Y41	Z41	X42	Y42	Z42	X43	Y43	Z43	X44	Y44	Z44	X45	Y45	Z45	X46	Y46	Z46	X47	Y47	Z47
																																																																																																																																														
110	1.09	-245.94534	1659.48291	903.82495	-241.05188	1653.50708	1036.24475	-377.16953	1600.81018	910.47003	-370.65292	1599.97546	1039.48999	-370.86588	1446.03381	966.56757	-405.89398	1118.36682	977.14453	-259.36627	1370.59424	971.21509	-219.79199	1195.83813	965.53687	-444.79688	1277.31287	1041.40308	-305.71564	1404.34595	808.95575	-261.72351	1210.97778	728.24744	-229.03893	1103.13525	709.84656	-132.55812	987.40424	691.80469	-22.0861	926.30316	738.40271	-68.95361	886.09332	704.05518	10.33231	842.68524	705.00031	-310.46082	1402.2157	1130.99304	-379.67502	1213.00781	1217.33569	-389.74304	1089.8689	1227.81897	-398.59583	969.4212	1243.7002	-372.37201	820.07904	1208.79358	-422.7095	833.4566	1253.09912	-404.2756	750.88062	1253.10413	-230.28079	955.6424	869.95135	-228.09296	966.70715	1091.38733	-388.32355	986.10883	902.31689	-380.4093	986.41107	1070.34094	-333.3121	644.27295	829.66705	-361.70004	481.61597	854.54547	-436.96899	234.94234	874.35107	-461.01154	66.58758	929.74982	-500.36761	55.96672	976.95837	-316.83893	33.49229	926.97284	-197.7047	642.58203	1152.45361	-147.67487	527.73053	1123.51208	-162.81458	266.78171	1130.84106	-158.96764	78.83593	1095.69446	-196.46165	50.60312	1051.73303	-5.83332	47.60872	1089.21729	-345.09006	1697.13245	965.57935	NaN	NaN	NaN	NaN	NaN	NaN	NaN	NaN	NaN	NaN	NaN	NaN	NaN	NaN	NaN	NaN	NaN	NaN	NaN	NaN	NaN
111	1.1	-235.69629	1657.96021	904.36768	-231.04178	1651.84241	1036.77722	-366.99704	1599.44714	910.76965	-360.63754	1598.4541	1039.77173	-360.89532	1444.56506	966.7923	-395.93738	1116.86353	977.60327	-249.46301	1369.0332	971.43329	-210.05156	1194.18018	965.56122	-434.95242	1275.91113	1041.40784	-295.89807	1402.9325	809.18427	-251.17958	1210.00989	728.14825	-217.67186	1102.43884	709.55505	-118.06797	989.40594	692.12939	-5.44327	933.0575	738.70929	-50.95474	890.3371	705.48761	29.84368	850.04901	706.77679	-300.51077	1400.7207	1131.22522	-371.57535	1212.30566	1217.3158	-382.88422	1089.18689	1227.69824	-392.57556	968.78101	1243.50366	-367.02719	819.80908	1209.51709	-417.79941	832.9364	1252.59277	-399.78763	750.29718	1252.8385	-220.70901	953.94073	869.70966	-217.18716	965.10333	1091.02209	-378.55188	984.76807	902.54865	-369.97757	985.01233	1070.60352	-326.15433	643.34656	829.53833	-355.85431	480.86142	854.61639	-434.56693	235.09848	874.32678	-460.63199	66.88914	929.86749	-500.12128	56.50424	977.16644	-316.77087	33.46049	926.91608	-190.57521	639.80121	1153.37463	-139.98935	524.74298	1124.17163	-143.37404	264.34219	1131.32849	-129.31917	76.87225	1095.53064	-165.86819	47.29148	1051.68066	24.94427	51.7448	1087.95801	-334.88025	1695.62646	966.00818	NaN	NaN	NaN	NaN	NaN	NaN	NaN	NaN	NaN	NaN	NaN	NaN	NaN	NaN	NaN	NaN	NaN	NaN	NaN	NaN	NaN
112	1.11	-225.43015	1656.40149	904.98566	-220.94301	1650.12195	1037.45276	-356.83496	1598.02209	911.1181	-350.56357	1596.79163	1040.05762	-350.82889	1443.02637	967.1095	-385.98422	1115.25549	978.06348	-239.32458	1367.39453	971.71295	-200.14868	1192.49719	965.67792	-424.94925	1274.33362	1041.56824	-286.04227	1401.38196	809.48822	-240.76402	1208.8501	728.13696	-206.49883	1101.57397	709.37811	-103.76102	991.39221	692.4978	10.56892	939.63068	739.31494	-33.48994	894.51093	707.33728	48.93065	857.43005	709.07959	-290.53574	1399.14526	1131.51306	-363.24414	1211.44238	1217.28943	-375.60156	1088.41492	1227.64795	-386.29016	968.03149	1243.37292	-361.20786	818.51691	1208.96606	-412.46201	832.25385	1252.14331	-394.88373	749.5722	1252.53223	-210.8889	952.20355	869.51971	-207.09851	963.31018	1091.02917	-368.69891	983.29041	902.69202	-359.49405	983.52051	1070.86853	-318.94455	642.39923	829.55609	-349.82217	479.95908	854.69171	-431.81381	235.15924	874.48938	-460.19843	67.26307	930.01508	-499.85562	57.08678	977.39044	-316.76193	33.42027	926.84888	-183.68591	636.78357	1154.09192	-132.29866	521.75507	1125.19934	-124.52854	262.32666	1131.6073	-101.09736	75.88982	1095.19092	-136.3297	45.16631	1051.36877	54.12045	56.66142	1086.84741	-324.66489	1694.07922	966.49335	NaN	NaN	NaN	NaN	NaN	NaN	NaN	NaN	NaN	NaN	NaN	NaN	NaN	NaN	NaN	NaN	NaN	NaN	NaN	NaN	NaN
113	1.12	-215.09528	1654.79004	905.6214	-210.86111	1648.37854	1038.03613	-346.69217	1596.47424	911.35065	-340.48569	1595.07056	1040.45483	-340.76642	1441.33154	967.39227	-375.71469	1113.5481	978.50049	-229.37128	1365.65735	972.10919	-190.18576	1190.78394	965.95654	-415.05493	1272.76685	1041.73438	-276.10495	1399.72937	809.83832	-230.30342	1207.52319	728.23029	-195.44249	1100.55481	709.27838	-89.92321	993.15155	693.31738	26.10531	946.02374	740.24078	-16.39919	899.05969	709.09094	67.40213	864.43805	711.42053	-280.64603	1397.47998	1131.88623	-354.86005	1210.46729	1217.36072	-368.25226	1087.48828	1227.62012	-379.67023	967.15015	1243.28027	-354.99213	817.5993	1209.09924	-406.60135	831.40363	1251.73828	-389.53824	748.72333	1252.25623	-201.01476	950.46991	869.41455	-196.40273	961.5437	1090.9115	-358.65619	981.75751	902.93213	-348.75549	981.92157	1071.13538	-311.32074	641.23596	829.26666	-343.47913	479.03287	854.73035	-428.89294	235.21924	874.49274	-459.7572	67.69418	930.22382	-499.54242	57.76913	977.69299	-316.70239	33.40938	926.80634	-176.27716	634.02026	1155.4491	-124.47841	518.82489	1126.5094	-106.47997	260.73434	1131.88379	-74.24204	75.73404	1094.72009	-108.13731	43.76056	1050.80261	81.76678	62.24509	1085.7522	-314.52615	1692.50317	966.99384	NaN	NaN	NaN	NaN	NaN	NaN	NaN	NaN	NaN	NaN	NaN	NaN	NaN	NaN	NaN	NaN	NaN	NaN	NaN	NaN	NaN
